<svg width="176" height="29" viewBox="0 0 176 29" fill="none" xmlns="http://www.w3.org/2000/svg">
<path d="M170.694 9.52612C171.711 9.52612 172.619 9.73745 173.418 10.1601C174.232 10.5828 174.865 11.2089 175.319 12.0386C175.773 12.8682 176 13.8701 176 15.0441V22.6755H173.347V15.4433C173.347 14.2849 173.057 13.4005 172.478 12.79C171.899 12.1638 171.109 11.8507 170.107 11.8507C169.105 11.8507 168.306 12.1638 167.712 12.79C167.132 13.4005 166.843 14.2849 166.843 15.4433V22.6755H164.166V9.73745H166.843V11.2168C167.281 10.6845 167.837 10.2697 168.51 9.97226C169.199 9.67484 169.927 9.52612 170.694 9.52612Z" fill="#332959"/>
<path d="M161.532 15.8895C161.532 16.3747 161.501 16.813 161.438 17.2044H151.553C151.631 18.2376 152.015 19.0672 152.704 19.6934C153.392 20.3195 154.238 20.6326 155.239 20.6326C156.68 20.6326 157.697 20.0299 158.292 18.8246H161.18C160.789 20.0143 160.077 20.9927 159.043 21.7597C158.026 22.5111 156.758 22.8868 155.239 22.8868C154.003 22.8868 152.891 22.6128 151.905 22.065C150.935 21.5014 150.168 20.7187 149.604 19.7169C149.056 18.6993 148.782 17.5253 148.782 16.1947C148.782 14.8641 149.048 13.6979 149.581 12.6961C150.128 11.6785 150.888 10.8958 151.858 10.348C152.844 9.80007 153.972 9.52612 155.239 9.52612C156.46 9.52612 157.548 9.79224 158.503 10.3245C159.458 10.8567 160.202 11.6081 160.734 12.5786C161.266 13.5335 161.532 14.6371 161.532 15.8895ZM158.738 15.0441C158.722 14.0579 158.37 13.2674 157.682 12.6726C156.993 12.0777 156.14 11.7803 155.122 11.7803C154.199 11.7803 153.408 12.0777 152.751 12.6726C152.093 13.2518 151.702 14.0423 151.576 15.0441H158.738Z" fill="#332959"/>
<path d="M141.146 20.2805L144.809 9.73755H147.651L142.72 22.6756H139.526L134.619 9.73755H137.483L141.146 20.2805Z" fill="#332959"/>
<path d="M119.339 16.1478C119.339 14.8485 119.605 13.6979 120.137 12.6961C120.685 11.6942 121.421 10.9193 122.344 10.3714C123.284 9.80789 124.317 9.52612 125.444 9.52612C126.461 9.52612 127.346 9.72962 128.097 10.1366C128.864 10.528 129.475 11.0211 129.929 11.6159V9.73745H132.629V22.6755H129.929V20.75C129.475 21.3605 128.856 21.8693 128.074 22.2763C127.291 22.6833 126.399 22.8868 125.397 22.8868C124.286 22.8868 123.268 22.605 122.344 22.0415C121.421 21.4623 120.685 20.6639 120.137 19.6464C119.605 18.6133 119.339 17.447 119.339 16.1478ZM129.929 16.1947C129.929 15.3024 129.741 14.5276 129.365 13.8701C129.005 13.2126 128.528 12.7117 127.933 12.3673C127.338 12.0229 126.696 11.8507 126.007 11.8507C125.319 11.8507 124.677 12.0229 124.082 12.3673C123.487 12.6961 123.002 13.1892 122.626 13.8466C122.266 14.4884 122.086 15.2555 122.086 16.1478C122.086 17.04 122.266 17.8227 122.626 18.4958C123.002 19.169 123.487 19.6855 124.082 20.0456C124.693 20.39 125.334 20.5622 126.007 20.5622C126.696 20.5622 127.338 20.39 127.933 20.0456C128.528 19.7012 129.005 19.2003 129.365 18.5428C129.741 17.8697 129.929 17.087 129.929 16.1947Z" fill="#332959"/>
<path d="M111.674 9.52613C112.66 9.52613 113.537 9.73746 114.304 10.1601C115.087 10.5828 115.697 11.2089 116.135 12.0386C116.589 12.8683 116.816 13.8701 116.816 15.0442V22.6755H114.163V15.4433C114.163 14.2849 113.873 13.4005 113.294 12.79C112.715 12.1638 111.924 11.8507 110.923 11.8507C109.921 11.8507 109.122 12.1638 108.528 12.79C107.948 13.4005 107.659 14.2849 107.659 15.4433V22.6755H104.982V5.29956H107.659V11.2402C108.113 10.6924 108.684 10.2697 109.373 9.97227C110.077 9.67485 110.844 9.52613 111.674 9.52613Z" fill="#332959"/>
<path d="M96.2611 9.52612C97.2786 9.52612 98.1865 9.73745 98.9849 10.1601C99.7989 10.5828 100.433 11.2089 100.887 12.0386C101.341 12.8682 101.568 13.8701 101.568 15.0441V22.6755H98.9145V15.4433C98.9145 14.2849 98.6249 13.4005 98.0457 12.79C97.4665 12.1638 96.6759 11.8507 95.6741 11.8507C94.6722 11.8507 93.8739 12.1638 93.279 12.79C92.6998 13.4005 92.4102 14.2849 92.4102 15.4433V22.6755H89.7334V9.73745H92.4102V11.2168C92.8485 10.6845 93.4043 10.2697 94.0774 9.97226C94.7662 9.67484 95.4941 9.52612 96.2611 9.52612Z" fill="#F95B46"/>
<path d="M72.9272 16.1478C72.9272 14.8485 73.1934 13.6979 73.7256 12.6961C74.2735 11.6942 75.0092 10.9193 75.9328 10.3714C76.872 9.80789 77.9052 9.52612 79.0323 9.52612C80.0498 9.52612 80.9343 9.72962 81.6856 10.1366C82.4527 10.528 83.0632 11.0211 83.5172 11.6159V9.73745H86.2175V22.6755H83.5172V20.75C83.0632 21.3605 82.4449 21.8693 81.6622 22.2763C80.8795 22.6833 79.9872 22.8868 78.9853 22.8868C77.8739 22.8868 76.8564 22.605 75.9328 22.0415C75.0092 21.4623 74.2735 20.6639 73.7256 19.6464C73.1934 18.6133 72.9272 17.447 72.9272 16.1478ZM83.5172 16.1947C83.5172 15.3024 83.3293 14.5276 82.9536 13.8701C82.5936 13.2126 82.1161 12.7117 81.5213 12.3673C80.9264 12.0229 80.2846 11.8507 79.5958 11.8507C78.9071 11.8507 78.2652 12.0229 77.6704 12.3673C77.0755 12.6961 76.5903 13.1892 76.2146 13.8466C75.8545 14.4884 75.6745 15.2555 75.6745 16.1478C75.6745 17.04 75.8545 17.8227 76.2146 18.4958C76.5903 19.169 77.0755 19.6855 77.6704 20.0456C78.2809 20.39 78.9227 20.5622 79.5958 20.5622C80.2846 20.5622 80.9264 20.39 81.5213 20.0456C82.1161 19.7012 82.5936 19.2003 82.9536 18.5428C83.3293 17.8697 83.5172 17.087 83.5172 16.1947Z" fill="#F95B46"/>
<path d="M60.5821 11.6629C61.0361 11.0367 61.6544 10.528 62.4371 10.1366C63.2355 9.72963 64.1199 9.52613 65.0904 9.52613C66.2332 9.52613 67.2663 9.80008 68.1899 10.348C69.1135 10.8959 69.8414 11.6786 70.3737 12.6961C70.9059 13.6979 71.172 14.8485 71.172 16.1478C71.172 17.447 70.9059 18.6133 70.3737 19.6464C69.8414 20.6639 69.1057 21.4623 68.1665 22.0415C67.2429 22.605 66.2175 22.8868 65.0904 22.8868C64.0886 22.8868 63.1963 22.6911 62.4136 22.2998C61.6466 21.9084 61.0361 21.4075 60.5821 20.797V22.6755H57.9053V5.29956H60.5821V11.6629ZM68.4482 16.1478C68.4482 15.2555 68.2604 14.4884 67.8847 13.8466C67.5246 13.1892 67.0394 12.6961 66.4289 12.3673C65.834 12.0229 65.1922 11.8507 64.5034 11.8507C63.8303 11.8507 63.1885 12.0229 62.578 12.3673C61.9831 12.7117 61.4979 13.2126 61.1222 13.8701C60.7621 14.5276 60.5821 15.3024 60.5821 16.1947C60.5821 17.087 60.7621 17.8697 61.1222 18.5428C61.4979 19.2003 61.9831 19.7012 62.578 20.0456C63.1885 20.39 63.8303 20.5622 64.5034 20.5622C65.1922 20.5622 65.834 20.39 66.4289 20.0456C67.0394 19.6856 67.5246 19.169 67.8847 18.4959C68.2604 17.8227 68.4482 17.04 68.4482 16.1478Z" fill="#F95B46"/>
<path d="M51.5538 11.5048C51.9451 10.8474 52.4617 10.3386 53.1035 9.97858C53.761 9.60289 54.5359 9.41504 55.4281 9.41504V12.1858H54.7472C53.6984 12.1858 52.9 12.4519 52.3521 12.9841C51.8199 13.5164 51.5538 14.44 51.5538 15.7549V22.5644H48.877V9.62637H51.5538V11.5048Z" fill="#F95B46"/>
<path d="M35.335 6.3562V16.7583C35.335 17.9949 35.6559 18.9263 36.2978 19.5525C36.9552 20.1787 37.8631 20.4917 39.0215 20.4917C40.1956 20.4917 41.1035 20.1787 41.7453 19.5525C42.4028 18.9263 42.7315 17.9949 42.7315 16.7583V6.3562H45.4084V16.7113C45.4084 18.0419 45.1188 19.169 44.5396 20.0926C43.9604 21.0161 43.1855 21.7049 42.215 22.1589C41.2444 22.6129 40.1721 22.8398 38.9981 22.8398C37.824 22.8398 36.7517 22.6129 35.7812 22.1589C34.8263 21.7049 34.0671 21.0161 33.5035 20.0926C32.94 19.169 32.6582 18.0419 32.6582 16.7113V6.3562H35.335Z" fill="#F95B46"/>
<path d="M21.5001 28.4518H14.3334V14.3208H0V0L14.3334 14.3208L21.5001 21.4752V28.4518Z" fill="#F95B46"/>
<path d="M0 28.4265H7.74004V14.3206L0 21.4093V28.4265Z" fill="#332959"/>
<path d="M21.5001 28.4518H14.3334V14.3208H0V0L14.3334 14.3208L21.5001 21.4752V28.4518Z" fill="#F95B46"/>
<path d="M0 28.4265H7.74004V14.3206L0 21.4093V28.4265Z" fill="#332959"/>
</svg>
