<svg width="76" height="76" viewBox="0 0 76 76" fill="none" xmlns="http://www.w3.org/2000/svg">
<path d="M0 37.6308C0 16.8479 16.8479 0 37.6308 0C58.4137 0 75.2616 16.8479 75.2616 37.6308C75.2616 58.4137 58.4137 75.2616 37.6308 75.2616C16.8479 75.2616 0 58.4137 0 37.6308Z" fill="#F95B46"/>
<path d="M19.3666 53.6907C20.9986 52.3947 21.7426 51.7947 21.5986 51.8907C26.3026 48.0027 29.9986 44.8107 32.6866 42.3147C35.4226 39.8187 37.7266 37.2027 39.5986 34.4667C41.4706 31.7307 42.4066 29.0667 42.4066 26.4747C42.4066 24.5067 41.9506 22.9707 41.0386 21.8667C40.1266 20.7627 38.7586 20.2107 36.9346 20.2107C35.1106 20.2107 33.6706 20.9067 32.6146 22.2987C31.6066 23.6427 31.1026 25.5627 31.1026 28.0587H19.2226C19.3186 23.9787 20.1826 20.5707 21.8146 17.8347C23.4946 15.0987 25.6786 13.0827 28.3666 11.7867C31.1026 10.4907 34.1266 9.84268 37.4386 9.84268C43.1506 9.84268 47.4466 11.3067 50.3266 14.2347C53.2546 17.1627 54.7186 20.9787 54.7186 25.6827C54.7186 30.8187 52.9666 35.5947 49.4626 40.0107C45.9586 44.3787 41.4946 48.6507 36.0706 52.8267H55.5106V62.8347H19.3666V53.6907Z" fill="#332959" fill-opacity="0.55"/>
<path d="M43.3337 50V47.3333C43.3337 45.9188 42.7718 44.5623 41.7716 43.5621C40.7714 42.5619 39.4148 42 38.0003 42H30.0003C28.5858 42 27.2293 42.5619 26.2291 43.5621C25.2289 44.5623 24.667 45.9188 24.667 47.3333V50" stroke="white" stroke-width="2.66667" stroke-linecap="round" stroke-linejoin="round"/>
<path d="M34.0003 36.6667C36.9458 36.6667 39.3337 34.2789 39.3337 31.3333C39.3337 28.3878 36.9458 26 34.0003 26C31.0548 26 28.667 28.3878 28.667 31.3333C28.667 34.2789 31.0548 36.6667 34.0003 36.6667Z" stroke="white" stroke-width="2.66667" stroke-linecap="round" stroke-linejoin="round"/>
<path d="M51.333 50.0005V47.3338C51.3321 46.1521 50.9388 45.0042 50.2148 44.0702C49.4908 43.1363 48.4772 42.4693 47.333 42.1738" stroke="white" stroke-width="2.66667" stroke-linecap="round" stroke-linejoin="round"/>
<path d="M43.333 26.1738C44.4802 26.4676 45.4971 27.1348 46.2232 28.0702C46.9493 29.0057 47.3435 30.1563 47.3435 31.3405C47.3435 32.5247 46.9493 33.6753 46.2232 34.6107C45.4971 35.5462 44.4802 36.2134 43.333 36.5072" stroke="white" stroke-width="2.66667" stroke-linecap="round" stroke-linejoin="round"/>
</svg>
