<svg width="76" height="76" viewBox="0 0 76 76" fill="none" xmlns="http://www.w3.org/2000/svg">
<path d="M0 37.6308C0 16.8479 16.8479 0 37.6308 0C58.4137 0 75.2616 16.8479 75.2616 37.6308C75.2616 58.4137 58.4137 75.2616 37.6308 75.2616C16.8479 75.2616 0 58.4137 0 37.6308Z" fill="#F95B46"/>
<path d="M19.7384 25.8267C19.9304 20.6907 21.6104 16.7307 24.7784 13.9467C27.9464 11.1627 32.2424 9.77068 37.6664 9.77068C41.2664 9.77068 44.3384 10.3947 46.8824 11.6427C49.4744 12.8907 51.4184 14.5947 52.7144 16.7547C54.0584 18.9147 54.7304 21.3387 54.7304 24.0267C54.7304 27.1947 53.9384 29.7867 52.3544 31.8027C50.7704 33.7707 48.9224 35.1147 46.8104 35.8347V36.1227C49.5464 37.0347 51.7064 38.5467 53.2904 40.6587C54.8744 42.7707 55.6664 45.4827 55.6664 48.7947C55.6664 51.7707 54.9704 54.4107 53.5784 56.7147C52.2344 58.9707 50.2424 60.7467 47.6024 62.0427C45.0104 63.3387 41.9144 63.9867 38.3144 63.9867C32.5544 63.9867 27.9464 62.5707 24.4904 59.7387C21.0824 56.9067 19.2824 52.6347 19.0904 46.9227H31.0424C31.0904 49.0347 31.6904 50.7147 32.8424 51.9627C33.9944 53.1627 35.6744 53.7627 37.8824 53.7627C39.7544 53.7627 41.1944 53.2347 42.2024 52.1787C43.2584 51.0747 43.7864 49.6347 43.7864 47.8587C43.7864 45.5547 43.0424 43.8987 41.5544 42.8907C40.1144 41.8347 37.7864 41.3067 34.5704 41.3067H32.2664V31.2987H34.5704C37.0184 31.2987 38.9864 30.8907 40.4744 30.0747C42.0104 29.2107 42.7784 27.6987 42.7784 25.5387C42.7784 23.8107 42.2984 22.4667 41.3384 21.5067C40.3784 20.5467 39.0584 20.0667 37.3784 20.0667C35.5544 20.0667 34.1864 20.6187 33.2744 21.7227C32.4104 22.8267 31.9064 24.1947 31.7624 25.8267H19.7384Z" fill="#332959" fill-opacity="0.55"/>
<path d="M42.9431 50.3911C42.6931 50.6411 42.354 50.7815 42.0005 50.7815C41.6469 50.7815 41.3078 50.6411 41.0578 50.3911L38.9431 48.2765C38.6932 48.0264 38.5527 47.6873 38.5527 47.3338C38.5527 46.9802 38.6932 46.6412 38.9431 46.3911L46.3911 38.9431C46.6412 38.6932 46.9802 38.5527 47.3338 38.5527C47.6873 38.5527 48.0264 38.6932 48.2765 38.9431L50.3911 41.0578C50.6411 41.3078 50.7815 41.6469 50.7815 42.0005C50.7815 42.354 50.6411 42.6931 50.3911 42.9431L42.9431 50.3911Z" stroke="white" stroke-width="2.66667" stroke-linecap="round" stroke-linejoin="round"/>
<path d="M46.0003 39.3327L44.167 30.1674C44.1171 29.918 43.997 29.6881 43.8208 29.5048C43.6445 29.3214 43.4195 29.1923 43.1723 29.1327L26.3137 24.7034C26.0916 24.6497 25.8594 24.6539 25.6394 24.7158C25.4195 24.7776 25.2191 24.895 25.0575 25.0565C24.8959 25.2181 24.7786 25.4185 24.7168 25.6385C24.6549 25.8584 24.6506 26.0906 24.7043 26.3127L29.1337 43.1714C29.1933 43.4186 29.3224 43.6435 29.5057 43.8198C29.6891 43.996 29.919 44.1162 30.1683 44.166L39.3337 45.9994" stroke="white" stroke-width="2.66667" stroke-linecap="round" stroke-linejoin="round"/>
<path d="M25.0664 25.0664L34.7811 34.7811" stroke="white" stroke-width="2.66667" stroke-linecap="round" stroke-linejoin="round"/>
<path d="M36.6667 39.3333C38.1394 39.3333 39.3333 38.1394 39.3333 36.6667C39.3333 35.1939 38.1394 34 36.6667 34C35.1939 34 34 35.1939 34 36.6667C34 38.1394 35.1939 39.3333 36.6667 39.3333Z" stroke="white" stroke-width="2.66667" stroke-linecap="round" stroke-linejoin="round"/>
</svg>
