<svg width="32" height="32" viewBox="0 0 32 32" fill="none" xmlns="http://www.w3.org/2000/svg">
<path d="M20.9431 28.3906C20.6931 28.6406 20.354 28.781 20.0005 28.781C19.6469 28.781 19.3078 28.6406 19.0578 28.3906L16.9431 26.276C16.6932 26.0259 16.5527 25.6868 16.5527 25.3333C16.5527 24.9797 16.6932 24.6407 16.9431 24.3906L24.3911 16.9426C24.6412 16.6927 24.9802 16.5522 25.3338 16.5522C25.6873 16.5522 26.0264 16.6927 26.2765 16.9426L28.3911 19.0573C28.6411 19.3073 28.7815 19.6464 28.7815 20C28.7815 20.3535 28.6411 20.6926 28.3911 20.9426L20.9431 28.3906Z" stroke="white" stroke-width="2.66667" stroke-linecap="round" stroke-linejoin="round"/>
<path d="M23.9994 17.3332L22.166 8.16785C22.1162 7.91848 21.996 7.68858 21.8198 7.50526C21.6435 7.32194 21.4186 7.19283 21.1714 7.13318L4.31269 2.70385C4.09059 2.65015 3.85842 2.65443 3.63846 2.71627C3.41849 2.77812 3.21811 2.89546 3.05654 3.05703C2.89497 3.2186 2.77763 3.41898 2.71579 3.63895C2.65394 3.85891 2.64966 4.09108 2.70336 4.31318L7.13269 21.1718C7.19234 21.419 7.32145 21.644 7.50477 21.8203C7.6881 21.9965 7.918 22.1166 8.16736 22.1665L17.3327 23.9998" stroke="white" stroke-width="2.66667" stroke-linecap="round" stroke-linejoin="round"/>
<path d="M3.06641 3.06689L12.7811 12.7816" stroke="white" stroke-width="2.66667" stroke-linecap="round" stroke-linejoin="round"/>
<path d="M14.6667 17.3333C16.1394 17.3333 17.3333 16.1394 17.3333 14.6667C17.3333 13.1939 16.1394 12 14.6667 12C13.1939 12 12 13.1939 12 14.6667C12 16.1394 13.1939 17.3333 14.6667 17.3333Z" stroke="white" stroke-width="2.66667" stroke-linecap="round" stroke-linejoin="round"/>
</svg>
