<svg width="32" height="32" viewBox="0 0 32 32" fill="none" xmlns="http://www.w3.org/2000/svg">
<path d="M20.0002 16L8.83624 27.164C8.30581 27.6944 7.58639 27.9924 6.83624 27.9924C6.08609 27.9924 5.36667 27.6944 4.83624 27.164C4.30581 26.6336 4.00781 25.9141 4.00781 25.164C4.00781 24.4139 4.30581 23.6944 4.83624 23.164L16.0002 12" stroke="white" stroke-width="2.66667" stroke-linecap="round" stroke-linejoin="round"/>
<path d="M24 19.9998L29.3333 14.6665" stroke="white" stroke-width="2.66667" stroke-linecap="round" stroke-linejoin="round"/>
<path d="M28.6667 15.3334L26.1147 12.7814C25.6145 12.2815 25.3335 11.6033 25.3333 10.8961V9.33344L22.32 6.32011C20.8327 4.83369 18.82 3.99259 16.7173 3.97878L12 3.94678L13.2267 5.04011C14.0979 5.81263 14.7956 6.76105 15.2736 7.82284C15.7517 8.88462 15.9992 10.0357 16 11.2001V13.3334L18.6667 16.0001H20.2293C20.9365 16.0003 21.6147 16.2813 22.1147 16.7814L24.6667 19.3334" stroke="white" stroke-width="2.66667" stroke-linecap="round" stroke-linejoin="round"/>
</svg>
