<svg width="76" height="76" viewBox="0 0 76 76" fill="none" xmlns="http://www.w3.org/2000/svg">
<path d="M0 37.6308C0 16.8479 16.8479 0 37.6308 0C58.4137 0 75.2616 16.8479 75.2616 37.6308C75.2616 58.4137 58.4137 75.2616 37.6308 75.2616C16.8479 75.2616 0 58.4137 0 37.6308Z" fill="#F95B46"/>
<path d="M16.7663 54.1947V44.2587L39.5183 11.7147H53.2703V43.5387H59.1743V54.1947H53.2703V63.5547H40.9583V54.1947H16.7663ZM41.8223 25.2507L29.7263 43.5387H41.8223V25.2507Z" fill="#332959" fill-opacity="0.55"/>
<path d="M42.0002 38L30.8362 49.164C30.3058 49.6944 29.5864 49.9924 28.8362 49.9924C28.0861 49.9924 27.3667 49.6944 26.8362 49.164C26.3058 48.6336 26.0078 47.9141 26.0078 47.164C26.0078 46.4139 26.3058 45.6944 26.8362 45.164L38.0002 34" stroke="white" stroke-width="2.66667" stroke-linecap="round" stroke-linejoin="round"/>
<path d="M46 41.9993L51.3333 36.666" stroke="white" stroke-width="2.66667" stroke-linecap="round" stroke-linejoin="round"/>
<path d="M50.6667 37.3339L48.1147 34.7819C47.6145 34.282 47.3335 33.6038 47.3333 32.8966V31.3339L44.32 28.3206C42.8327 26.8342 40.82 25.9931 38.7173 25.9793L34 25.9473L35.2267 27.0406C36.0979 27.8131 36.7956 28.7615 37.2736 29.8233C37.7517 30.8851 37.9992 32.0362 38 33.2006V35.3339L40.6667 38.0006H42.2293C42.9365 38.0008 43.6147 38.2818 44.1147 38.7819L46.6667 41.3339" stroke="white" stroke-width="2.66667" stroke-linecap="round" stroke-linejoin="round"/>
</svg>
