<svg width="76" height="76" viewBox="0 0 76 76" fill="none" xmlns="http://www.w3.org/2000/svg">
<path d="M0 37.6308C0 16.8479 16.8479 0 37.6308 0C58.4137 0 75.2616 16.8479 75.2616 37.6308C75.2616 58.4137 58.4137 75.2616 37.6308 75.2616C16.8479 75.2616 0 58.4137 0 37.6308Z" fill="#F95B46"/>
<path d="M54.1738 21.7227H31.7098V31.6587C32.6698 30.6027 34.0138 29.7387 35.7418 29.0667C37.4698 28.3947 39.3418 28.0587 41.3578 28.0587C44.9578 28.0587 47.9338 28.8747 50.2858 30.5067C52.6858 32.1387 54.4378 34.2507 55.5418 36.8427C56.6458 39.4347 57.1978 42.2427 57.1978 45.2667C57.1978 50.8827 55.6138 55.3467 52.4458 58.6587C49.2778 61.9227 44.8138 63.5547 39.0538 63.5547C35.2138 63.5547 31.8778 62.9067 29.0458 61.6107C26.2138 60.2667 24.0298 58.4187 22.4938 56.0667C20.9578 53.7147 20.1178 51.0027 19.9738 47.9307H31.9978C32.2858 49.4187 32.9818 50.6667 34.0858 51.6747C35.1898 52.6347 36.7018 53.1147 38.6218 53.1147C40.8778 53.1147 42.5578 52.3947 43.6618 50.9547C44.7658 49.5147 45.3178 47.5947 45.3178 45.1947C45.3178 42.8427 44.7418 41.0427 43.5898 39.7947C42.4378 38.5467 40.7578 37.9227 38.5498 37.9227C36.9178 37.9227 35.5738 38.3307 34.5178 39.1467C33.4618 39.9147 32.7658 40.9467 32.4298 42.2427H20.5498V10.9227H54.1738V21.7227Z" fill="#332959" fill-opacity="0.55"/>
<path d="M51.0681 35.3333C51.6771 38.3217 51.2431 41.4286 49.8386 44.1357C48.4341 46.8429 46.144 48.9867 43.3502 50.2097C40.5563 51.4328 37.4276 51.661 34.4859 50.8565C31.5441 50.0519 28.9671 48.2632 27.1845 45.7885C25.4019 43.3139 24.5216 40.303 24.6904 37.2578C24.8591 34.2127 26.0666 31.3174 28.1117 29.0549C30.1567 26.7923 32.9156 25.2992 35.9282 24.8246C38.9409 24.35 42.0252 24.9225 44.6668 26.4467" stroke="white" stroke-width="2.66667" stroke-linecap="round" stroke-linejoin="round"/>
<path d="M34 36.6673L38 40.6673L51.3333 27.334" stroke="white" stroke-width="2.66667" stroke-linecap="round" stroke-linejoin="round"/>
</svg>
