<svg width="76" height="76" viewBox="0 0 76 76" fill="none" xmlns="http://www.w3.org/2000/svg">
<path d="M0 37.6308C0 16.8479 16.8479 0 37.6308 0C58.4137 0 75.2616 16.8479 75.2616 37.6308C75.2616 58.4137 58.4137 75.2616 37.6308 75.2616C16.8479 75.2616 0 58.4137 0 37.6308Z" fill="#F95B46"/>
<path d="M25.7956 22.4427V10.9947H45.7396V63.5547H32.9236V22.4427H25.7956Z" fill="#332959" fill-opacity="0.55"/>
<path d="M50 42C50 42.7072 49.719 43.3855 49.219 43.8856C48.7189 44.3857 48.0406 44.6667 47.3333 44.6667H31.3333L26 50V28.6667C26 27.9594 26.281 27.2811 26.781 26.781C27.2811 26.281 27.9594 26 28.6667 26H47.3333C48.0406 26 48.7189 26.281 49.219 26.781C49.719 27.2811 50 27.9594 50 28.6667V42Z" stroke="white" stroke-width="2.66667" stroke-linecap="round" stroke-linejoin="round"/>
</svg>
