<svg width="56" height="56" viewBox="0 0 56 56" fill="none" xmlns="http://www.w3.org/2000/svg">
<rect width="56" height="56" rx="28" fill="#F75E4A" fill-opacity="0.1"/>
<path d="M37.9994 32.9201V35.9201C38.0006 36.1986 37.9435 36.4743 37.832 36.7294C37.7204 36.9846 37.5567 37.2137 37.3515 37.402C37.1463 37.5902 36.904 37.7336 36.6402 37.8228C36.3764 37.912 36.0968 37.9452 35.8194 37.9201C32.7423 37.5857 29.7864 36.5342 27.1894 34.8501C24.7733 33.3148 22.7248 31.2663 21.1894 28.8501C19.4994 26.2413 18.4477 23.2711 18.1194 20.1801C18.0945 19.9036 18.1273 19.6249 18.2159 19.3617C18.3046 19.0986 18.447 18.8568 18.6342 18.6517C18.8214 18.4466 19.0492 18.2828 19.3032 18.1706C19.5572 18.0584 19.8318 18.0004 20.1094 18.0001H23.1094C23.5948 17.9953 24.0652 18.1672 24.4332 18.4836C24.8012 18.8001 25.0415 19.2395 25.1094 19.7201C25.2361 20.6802 25.4709 21.6228 25.8094 22.5301C25.944 22.888 25.9731 23.277 25.8934 23.651C25.8136 24.0249 25.6283 24.3682 25.3594 24.6401L24.0894 25.9101C25.513 28.4136 27.5859 30.4865 30.0894 31.9101L31.3594 30.6401C31.6313 30.3712 31.9746 30.1859 32.3486 30.1062C32.7225 30.0264 33.1115 30.0556 33.4694 30.1901C34.3767 30.5286 35.3194 30.7635 36.2794 30.8901C36.7652 30.9586 37.2088 31.2033 37.526 31.5776C37.8431 31.9519 38.0116 32.4297 37.9994 32.9201Z" stroke="#F75E4A" stroke-width="2" stroke-linecap="round" stroke-linejoin="round"/>
</svg>
