<svg width="56" height="56" viewBox="0 0 56 56" fill="none" xmlns="http://www.w3.org/2000/svg">
<rect width="56" height="56" rx="28" fill="#F75E4A" fill-opacity="0.1"/>
<path d="M36 26C36 30.993 30.461 36.193 28.601 37.799C28.4277 37.9293 28.2168 37.9998 28 37.9998C27.7832 37.9998 27.5723 37.9293 27.399 37.799C25.539 36.193 20 30.993 20 26C20 23.8783 20.8429 21.8434 22.3431 20.3431C23.8434 18.8429 25.8783 18 28 18C30.1217 18 32.1566 18.8429 33.6569 20.3431C35.1571 21.8434 36 23.8783 36 26Z" stroke="#F75E4A" stroke-width="2" stroke-linecap="round" stroke-linejoin="round"/>
<path d="M28 29C29.6569 29 31 27.6569 31 26C31 24.3431 29.6569 23 28 23C26.3431 23 25 24.3431 25 26C25 27.6569 26.3431 29 28 29Z" stroke="#F75E4A" stroke-width="2" stroke-linecap="round" stroke-linejoin="round"/>
</svg>
