<svg width="28" height="28" viewBox="0 0 28 28" fill="none" xmlns="http://www.w3.org/2000/svg">
<path d="M14.0007 25.6668C20.444 25.6668 25.6673 20.4435 25.6673 14.0002C25.6673 7.55684 20.444 2.3335 14.0007 2.3335C7.55733 2.3335 2.33398 7.55684 2.33398 14.0002C2.33398 20.4435 7.55733 25.6668 14.0007 25.6668Z" stroke="#F75E4A" stroke-width="2.33333" stroke-linecap="round" stroke-linejoin="round"/>
<path d="M14 21C17.866 21 21 17.866 21 14C21 10.134 17.866 7 14 7C10.134 7 7 10.134 7 14C7 17.866 10.134 21 14 21Z" stroke="#F75E4A" stroke-width="2.33333" stroke-linecap="round" stroke-linejoin="round"/>
<path d="M13.9993 16.3332C15.288 16.3332 16.3327 15.2885 16.3327 13.9998C16.3327 12.7112 15.288 11.6665 13.9993 11.6665C12.7107 11.6665 11.666 12.7112 11.666 13.9998C11.666 15.2885 12.7107 16.3332 13.9993 16.3332Z" stroke="#F75E4A" stroke-width="2.33333" stroke-linecap="round" stroke-linejoin="round"/>
</svg>
