<svg width="32" height="32" viewBox="0 0 32 32" fill="none" xmlns="http://www.w3.org/2000/svg">
<path d="M20.6357 17.1865L22.6557 28.5545C22.6783 28.6884 22.6595 28.826 22.6018 28.9489C22.5442 29.0718 22.4503 29.1741 22.3329 29.2423C22.2155 29.3104 22.0801 29.341 21.9447 29.3301C21.8094 29.3192 21.6807 29.2673 21.5757 29.1812L16.8023 25.5985C16.5719 25.4264 16.292 25.3334 16.0043 25.3334C15.7167 25.3334 15.4368 25.4264 15.2063 25.5985L10.425 29.1799C10.3201 29.2658 10.1915 29.3177 10.0563 29.3286C9.92117 29.3395 9.7859 29.309 9.66855 29.241C9.55121 29.1731 9.45737 29.071 9.39956 28.9483C9.34175 28.8256 9.32272 28.6883 9.345 28.5545L11.3637 17.1865" stroke="#F95B46" stroke-width="2.66667" stroke-linecap="round" stroke-linejoin="round"/>
<path d="M16 18.6665C20.4183 18.6665 24 15.0848 24 10.6665C24 6.24823 20.4183 2.6665 16 2.6665C11.5817 2.6665 8 6.24823 8 10.6665C8 15.0848 11.5817 18.6665 16 18.6665Z" stroke="#F95B46" stroke-width="2.66667" stroke-linecap="round" stroke-linejoin="round"/>
</svg>
